# xmcd CD database file generated by Grip 2.96
# 
# Track frame offsets:
#       150
#       12087
#       28687
#       41877
#       56875
#       69317
#       82687
#       95577
#       108817
#       125890
#       141252
#       152762
#       175035
#       189847
#       203495
#       218722
# 
# Disc length: 3118 seconds
# 
# Revision: 0
# Processed by: cddbd v1.5PL3 Copyright (c) Steve Scherf et al.
# Submitted via: Grip 2.96
# 
DISCID=d20c2c10
DTITLE=larry gatlin and gatlin bros band - indian summer
DYEAR=1900
DGENRE=
TTITLE0=all the gold in california
TTITLE1=denver
TTITLE2=almost called her baby by mistake
TTITLE3=were number one
TTITLE4=take me to your lovin place
TTITLE5=nothin but your love matters
TTITLE6=lady takes the cowboy every time
TTITLE7=houston - means im one day closer to you
TTITLE8=indian summer
TTITLE9=sure feels like love
TTITLE10=what are we doing lonesome
TTITLE11=midnight choir - morgan david
TTITLE12=in like with each other
TTITLE13=wind is bound to change
TTITLE14=taking somebody with me when i fall
TTITLE15=she used to sing on sunday
EXTD=
EXTT0=
EXTT1=
EXTT2=
EXTT3=
EXTT4=
EXTT5=
EXTT6=
EXTT7=
EXTT8=
EXTT9=
EXTT10=
EXTT11=
EXTT12=
EXTT13=
EXTT14=
EXTT15=
PLAYORDER=
